<svg width="19" height="19" viewBox="0 0 19 19" fill="none" xmlns="http://www.w3.org/2000/svg">
<path d="M16.0312 1.1875H2.96875C2.49633 1.1875 2.04327 1.37517 1.70922 1.70922C1.37517 2.04327 1.1875 2.49633 1.1875 2.96875L1.1875 16.0312C1.1875 16.5037 1.37517 16.9567 1.70922 17.2908C2.04327 17.6248 2.49633 17.8125 2.96875 17.8125H8.06201V12.1604H5.72412V9.5H8.06201V7.47234C8.06201 5.166 9.43506 3.89203 11.538 3.89203C12.5452 3.89203 13.5984 4.07164 13.5984 4.07164V6.33531H12.438C11.2946 6.33531 10.938 7.04484 10.938 7.77256V9.5H13.4904L13.0822 12.1604H10.938V17.8125H16.0312C16.5037 17.8125 16.9567 17.6248 17.2908 17.2908C17.6248 16.9567 17.8125 16.5037 17.8125 16.0312V2.96875C17.8125 2.49633 17.6248 2.04327 17.2908 1.70922C16.9567 1.37517 16.5037 1.1875 16.0312 1.1875Z" fill="#191654"/>
</svg>
