<svg width="19" height="19" viewBox="0 0 19 19" fill="none" xmlns="http://www.w3.org/2000/svg">
<path d="M16.0312 1.1875H2.96875C2.49633 1.1875 2.04327 1.37517 1.70922 1.70922C1.37517 2.04327 1.1875 2.49633 1.1875 2.96875L1.1875 16.0312C1.1875 16.5037 1.37517 16.9567 1.70922 17.2908C2.04327 17.6248 2.49633 17.8125 2.96875 17.8125H16.0312C16.5037 17.8125 16.9567 17.6248 17.2908 17.2908C17.6248 16.9567 17.8125 16.5037 17.8125 16.0312V2.96875C17.8125 2.49633 17.6248 2.04327 17.2908 1.70922C16.9567 1.37517 16.5037 1.1875 16.0312 1.1875ZM15.423 12.5938L14.8664 15.0059C14.8381 15.1286 14.7691 15.238 14.6707 15.3164C14.5722 15.3947 14.4501 15.4374 14.3242 15.4375C8.38672 15.4375 3.5625 10.624 3.5625 4.67578C3.56692 4.55111 3.61123 4.43116 3.68892 4.33356C3.76661 4.23596 3.87358 4.16587 3.99408 4.13361L6.40619 3.57697C6.44734 3.56827 6.4892 3.56343 6.53125 3.5625C6.63889 3.56793 6.74312 3.60208 6.83311 3.6614C6.92309 3.72072 6.99556 3.80304 7.04299 3.89982L8.15627 6.49748C8.18354 6.56752 8.19872 6.64168 8.20117 6.7168C8.19211 6.88158 8.11884 7.03625 7.99707 7.14764L6.591 8.29803C7.44296 10.1037 8.89626 11.557 10.702 12.409L11.8524 11.0029C11.9638 10.8812 12.1184 10.8079 12.2832 10.7988C12.3583 10.8012 12.4325 10.8164 12.5025 10.8437L15.1002 11.957C15.197 12.0044 15.2794 12.0768 15.3387 12.1668C15.398 12.2568 15.4321 12.3611 15.4375 12.4688C15.4368 12.5108 15.4319 12.5527 15.423 12.5938Z" fill="#191654"/>
</svg>
