<svg width="260" height="387" viewBox="0 0 260 387" fill="none" xmlns="http://www.w3.org/2000/svg">
<path d="M26.1782 0H232.986C239.929 0 246.588 2.75805 251.497 7.66742C256.406 12.5768 259.164 19.2353 259.164 26.1782V281.416C259.164 288.359 256.406 295.017 251.497 299.927C246.588 304.836 239.929 307.594 232.986 307.594H206.808C199.865 307.594 193.206 310.352 188.297 315.262C183.388 320.171 180.63 326.829 180.63 333.772V359.951C180.63 366.893 177.872 373.552 172.962 378.461C168.053 383.371 161.394 386.129 154.451 386.129H26.1782C19.2353 386.129 12.5768 383.371 7.66742 378.461C2.75805 373.552 0 366.893 0 359.951L0 26.1782C0 19.2353 2.75805 12.5768 7.66742 7.66742C12.5768 2.75805 19.2353 0 26.1782 0Z" fill="#012A66"/>
</svg>
